PathFileType	4	(X/Y/Z)	/Users/itak/Documents/Research/Walk-IL/dataset/trc/00299_00010.trc
DataRate	CameraRate	NumFrames	NumMarkers	Units	OrigDataRate	OrigDataStartFrame	OrigNumFrames
100.000000	100.000000	4	53	mm	100.000000	273	364
Frame#	Time	RPSI			LPSI			L3			STRN			T10			C7			CLAV			RBAK			LBAK			LSHO			LUPA			LAEL			LAOL			LWPS			LFRA			LIFD			LHPS			LHTS			RSHO			RUPA			RAEL			RAOL			RWTS			RWPS			RFRA			RIFD			RHTS			RHPS			RBHD			LFHD			RFHD			LBHD			LHIP			RHIP			RASI			LASI			LKNE			LTHI			LANK			LTIP			LTOE			LMT1			LMT5			LHEE			RKNE			RTHI			RTIP			RTOE			RMT1			RMT5			RHEE			LWTS			RANK			
		X1	Y1	Z1	X2	Y2	Z2	X3	Y3	Z3	X4	Y4	Z4	X5	Y5	Z5	X6	Y6	Z6	X7	Y7	Z7	X8	Y8	Z8	X9	Y9	Z9	X10	Y10	Z10	X11	Y11	Z11	X12	Y12	Z12	X13	Y13	Z13	X14	Y14	Z14	X15	Y15	Z15	X16	Y16	Z16	X17	Y17	Z17	X18	Y18	Z18	X19	Y19	Z19	X20	Y20	Z20	X21	Y21	Z21	X22	Y22	Z22	X23	Y23	Z23	X24	Y24	Z24	X25	Y25	Z25	X26	Y26	Z26	X27	Y27	Z27	X28	Y28	Z28	X29	Y29	Z29	X30	Y30	Z30	X31	Y31	Z31	X32	Y32	Z32	X33	Y33	Z33	X34	Y34	Z34	X35	Y35	Z35	X36	Y36	Z36	X37	Y37	Z37	X38	Y38	Z38	X39	Y39	Z39	X40	Y40	Z40	X41	Y41	Z41	X42	Y42	Z42	X43	Y43	Z43	X44	Y44	Z44	X45	Y45	Z45	X46	Y46	Z46	X47	Y47	Z47	X48	Y48	Z48	X49	Y49	Z49	X50	Y50	Z50	X51	Y51	Z51	X52	Y52	Z52	X53	Y53	Z53	

274	2.73	513.6813354492188	998.1989135742188	-310.6757507324219	340.7050170898438	977.6336669921875	-284.4740600585938	422.2775268554688	1058.649291992188	-311.584716796875	369.917236328125	1241.618286132812	-554.414794921875	423.9469909667969	1174.871704101562	-297.7838134765625	397.4141845703125	1420.332641601562	-332.4718627929688	375.9330444335938	1340.914672851562	-490.3204650878906	484.2037048339844	1284.03515625	-296.9919128417969	297.4490661621094	1382.26611328125	-299.6844787597656	228.7236175537109	1388.532104492188	-380.3538208007812	162.8746032714844	1270.337890625	-342.9825439453125	147.9124450683594	1065.9892578125	-348.2426452636719	218.0352935791016	1054.401123046875	-296.6820068359375	129.5581665039062	831.2377319335938	-387.74853515625	138.0241088867188	961.5142822265625	-359.3209533691406	188.1934661865234	658.0640258789062	-425.3114624023438	134.5267944335938	742.7752075195312	-388.1760559082031	166.8749542236328	742.587158203125	-445.9786071777344	541.2700805664062	1400.18310546875	-427.9099426269531	607.0339965820312	1341.054809570312	-434.8124694824219	672.0095825195312	1078.952758789062	-461.9256896972656	591.8539428710938	1062.23876953125	-413.3132629394531	595.731689453125	893.8583374023438	-608.4329223632812	675.5031127929688	875.9918212890625	-583.4949951171875	678.8426513671875	1018.930419921875	-503.04248046875	588.6143188476562	722.0045776367188	-680.8873291015625	603.6873168945312	796.1498413085938	-677.9815063476562	661.2621459960938	778.0880737304688	-641.3792114257812	468.8200988769531	1572.25830078125	-360.21875	320.8550109863281	1632.516235351562	-500.4557800292969	412.3408508300781	1630.112060546875	-517.5264892578125	325.0155944824219	1566.363525390625	-336.6251220703125	237.0968780517578	929.2052001953125	-343.3031616210938	600.7703857421875	954.3840942382812	-429.3501586914062	512.460205078125	956.28955078125	-538.4441528320312	264.0724182128906	946.9527587890625	-486.3416137695312	242.3532562255859	477.3956298828125	-491.4539794921875	227.130615234375	615.8333740234375	-454.1526184082031	270.8608703613281	46.31020736694336	-353.3724975585938	246.1675872802734	255.0148773193359	-421.8714599609375	319.3277282714844	37.56796264648438	-561.3041381835938	361.9853210449219	26.57918930053711	-492.6677551269531	252.0818176269531	40.92882537841797	-474.8923645019531	332.2657165527344	39.75288391113281	-308.5928344726562	559.732177734375	479.6514587402344	-429.3055725097656	586.0145263671875	741.3115234375	-479.8943481445312	546.3206176757812	359.4771728515625	-433.4927673339844	469.1574401855469	38.30396270751953	-564.8303833007812	432.0531616210938	35.86951065063477	-504.4895629882812	544.5633544921875	30.41142654418945	-473.2423095703125	481.8496398925781	37.91216659545898	-315.8368225097656	187.5149993896484	842.2348022460938	-430.2362670898438	529.560302734375	41.52687072753906	-369.9916687011719	
275	2.74	512.8577270507812	999.185546875	-312.0601196289062	339.6279296875	979.3566284179688	-286.0675354003906	421.4751892089844	1059.169189453125	-313.2467346191406	369.2091979980469	1242.433837890625	-555.18212890625	423.0650634765625	1174.946411132812	-298.9127197265625	396.5887145996094	1420.58447265625	-332.6910705566406	375.0766906738281	1341.6826171875	-490.8961181640625	483.2140197753906	1284.127075195312	-297.5986633300781	296.6555480957031	1382.302856445312	-300.0301513671875	228.0453643798828	1388.954467773438	-380.6227111816406	161.9563903808594	1270.57275390625	-343.6089782714844	146.6813049316406	1066.200927734375	-349.6769409179688	216.9939422607422	1054.400512695312	-298.4228515625	128.2144775390625	831.4139404296875	-389.0996398925781	136.7810211181641	961.787841796875	-360.8891906738281	186.9508056640625	658.1485595703125	-426.4175415039062	133.0810546875	742.96142578125	-389.4278869628906	165.3399810791016	742.6246948242188	-447.2832946777344	540.5929565429688	1400.678100585938	-428.0180358886719	606.2384643554688	1341.406005859375	-434.9662780761719	669.8118896484375	1078.950317382812	-461.6036987304688	589.5455932617188	1062.875854492188	-412.8919677734375	593.2999267578125	890.9390258789062	-604.6476440429688	673.2665405273438	873.8203125	-579.6451416015625	676.565185546875	1018.341125488281	-501.9829406738281	586.2752075195312	717.6005249023438	-673.4334716796875	601.1425170898438	791.8077392578125	-672.118408203125	659.0880737304688	774.7863159179688	-635.4713134765625	467.9356994628906	1572.888061523438	-360.4623718261719	320.0787048339844	1633.037109375	-500.8413696289062	411.5778198242188	1630.554321289062	-517.8870239257812	324.1012268066406	1567.146484375	-336.9274291992188	236.0253143310547	930.9346313476562	-344.7621154785156	600.1177978515625	954.4713745117188	-430.2810668945312	512.0757446289062	956.1090698242188	-539.64111328125	263.3170776367188	947.501708984375	-487.910400390625	242.4280242919922	477.8065795898438	-489.3046875	226.8160247802734	616.5693359375	-453.1257629394531	271.0198059082031	46.18677520751953	-353.1999206542969	246.3819732666016	255.1291198730469	-420.5043029785156	319.5653991699219	36.90001678466797	-561.4533081054688	362.2068176269531	26.55050659179688	-492.48583984375	252.2745819091797	40.81594085693359	-474.7852783203125	332.3989868164062	39.66326522827148	-308.4425048828125	559.0873413085938	479.6522827148438	-428.4740295410156	585.442626953125	741.124755859375	-479.8073425292969	545.9915771484375	359.7909851074219	-432.6220703125	469.1433715820312	38.35186004638672	-564.7923583984375	432.03515625	35.896728515625	-504.46728515625	544.5398559570312	30.43692207336426	-473.2403869628906	481.8119201660156	37.91355133056641	-315.8143310546875	185.9573364257812	842.328125	-431.8147888183594	529.5297241210938	41.56739807128906	-369.9738159179688	
276	2.75	512.0418701171875	1000.220581054688	-313.3394165039062	338.5634765625	981.2293090820312	-287.6001586914062	420.7011413574219	1059.838134765625	-314.8266906738281	368.5321960449219	1243.302978515625	-555.9510498046875	422.1997680664062	1175.146484375	-300.0000610351562	395.7417602539062	1420.9140625	-332.9133605957031	374.23681640625	1342.51708984375	-491.4766235351562	482.243408203125	1284.351684570312	-298.1926574707031	295.8634338378906	1382.441772460938	-300.389892578125	227.3873596191406	1389.488891601562	-380.9223937988281	161.0384826660156	1270.921630859375	-344.2485961914062	145.5129852294922	1066.570678710938	-351.1613159179688	215.9375610351562	1054.550659179688	-300.1356201171875	126.8371505737305	831.8206787109375	-390.7179565429688	135.5689239501953	962.2357177734375	-362.5708312988281	185.4648132324219	658.3939819335938	-427.601806640625	131.4962921142578	743.385009765625	-390.9443969726562	163.9273834228516	742.8565673828125	-448.7151489257812	539.872802734375	1401.294067382812	-428.1546936035156	605.4199829101562	1341.89111328125	-435.1538391113281	667.51953125	1079.094116210938	-461.3021545410156	587.16552734375	1063.65966796875	-412.5099487304688	591.0262451171875	888.0411376953125	-600.678955078125	671.1641235351562	871.7637939453125	-575.5822143554688	674.2538452148438	1017.895263671875	-500.8765869140625	584.2376098632812	713.1588745117188	-665.4854125976562	598.8367919921875	787.4115600585938	-665.886474609375	657.1512451171875	771.5261840820312	-629.1652221679688	467.0205078125	1573.59033203125	-360.662841796875	319.2519226074219	1633.617919921875	-501.1755981445312	410.7752685546875	1631.074584960938	-518.2024536132812	323.1531982421875	1567.986328125	-337.1747741699219	234.9698181152344	932.80322265625	-346.151611328125	599.4669799804688	954.5557250976562	-431.0765686035156	511.7111206054688	955.9950561523438	-540.7138061523438	262.5574340820312	948.1690063476562	-489.3936462402344	242.3722381591797	478.3643188476562	-487.1292419433594	226.5307464599609	617.4030151367188	-451.9814758300781	271.0994873046875	46.09321975708008	-353.0814819335938	246.4446716308594	255.3917846679688	-419.126220703125	319.6753540039062	36.4536247253418	-561.577392578125	362.3300476074219	26.57540130615234	-492.3930358886719	252.3699645996094	40.71525955200195	-474.6983032226562	332.4148559570312	39.69187545776367	-308.3866882324219	558.3634643554688	479.6668395996094	-427.7471313476562	584.8152465820312	740.966552734375	-479.6433410644531	545.59912109375	360.0870971679688	-431.8562622070312	469.1288452148438	38.39950561523438	-564.7564086914062	432.0116577148438	35.92324829101562	-504.4501953125	544.51025390625	30.46712112426758	-473.2407836914062	481.7641296386719	37.9192008972168	-315.796630859375	184.5863189697266	842.5960083007812	-433.4324645996094	529.4876098632812	41.61570739746094	-369.9598999023438	
277	2.76	511.2233276367188	1001.278625488281	-314.4934692382812	337.5156555175781	983.1818237304688	-289.0540466308594	419.944580078125	1060.638916015625	-316.3008728027344	367.8937072753906	1244.208129882812	-556.7230834960938	421.3484191894531	1175.456176757812	-301.0401611328125	394.8826599121094	1421.310180664062	-333.146484375	373.4298706054688	1343.403930664062	-492.0650939941406	481.3054809570312	1284.700317382812	-298.7761535644531	295.0705261230469	1382.672119140625	-300.773681640625	226.7216644287109	1390.112182617188	-381.2720336914062	160.1273956298828	1271.382080078125	-344.9130859375	144.4064483642578	1067.094482421875	-352.6802368164062	214.8773803710938	1054.846313476562	-301.8039855957031	125.4236831665039	832.4384765625	-392.576171875	134.3807067871094	962.843505859375	-364.3411254882812	183.7728424072266	658.7970581054688	-428.9040832519531	129.8056793212891	744.0225219726562	-392.7027893066406	162.6116943359375	743.279052734375	-450.2843933105469	539.11328125	1402.015502929688	-428.3276977539062	604.5887451171875	1342.496704101562	-435.384765625	665.14794921875	1079.376220703125	-461.0033264160156	584.7383422851562	1064.576049804688	-412.1580200195312	588.9216918945312	885.196533203125	-596.5439453125	669.1990356445312	869.843017578125	-571.3372802734375	671.9255981445312	1017.586486816406	-499.7189025878906	582.5074462890625	708.7384643554688	-657.0730590820312	596.7744140625	783.0154418945312	-659.3140869140625	655.4624633789062	768.3663940429688	-622.5138549804688	466.0813598632812	1574.344604492188	-360.8219604492188	318.3764343261719	1634.242919921875	-501.4561767578125	409.9355163574219	1631.658081054688	-518.4708862304688	322.1826782226562	1568.854125976562	-337.3683166503906	233.9465637207031	934.72900390625	-347.465576171875	598.8163452148438	954.646728515625	-431.7225646972656	511.3558044433594	955.955810546875	-541.6497802734375	261.8056945800781	948.9177856445312	-490.7805786132812	242.1754302978516	479.0055236816406	-484.929443359375	226.2328643798828	618.2947387695312	-450.7734680175781	271.0576477050781	45.9759521484375	-352.9966430664062	246.3197784423828	255.7532501220703	-417.75244140625	319.6913757324219	36.19807434082031	-561.6487426757812	362.3699340820312	26.64104080200195	-492.3480834960938	252.3630828857422	40.60721969604492	-474.6247253417969	332.2571105957031	39.77607345581055	-308.3855285644531	557.5889892578125	479.6996765136719	-427.1593627929688	584.1490478515625	740.8492431640625	-479.4255981445312	545.1622314453125	360.3578491210938	-431.234130859375	469.1160278320312	38.44402694702148	-564.7230224609375	431.9862060546875	35.94972991943359	-504.4386291503906	544.4796142578125	30.49664306640625	-473.2440490722656	481.7124938964844	37.93096923828125	-315.7852478027344	183.3733520507812	843.0372924804688	-435.0971374511719	529.4391479492188	41.66605377197266	-369.9508666992188	
